<?xml version="1.0" encoding="utf-8"?>
<!-- Generator: Adobe Illustrator 26.0.1, SVG Export Plug-In . SVG Version: 6.00 Build 0)  -->
<svg version="1.1" id="Layer_1" xmlns="http://www.w3.org/2000/svg" xmlns:xlink="http://www.w3.org/1999/xlink" x="0px" y="0px"
	 viewBox="0 0 283.3 101" style="enable-background:new 0 0 283.3 101;" xml:space="preserve">
<style type="text/css">
	.st0{fill:#D6CBFF;}
	.st1{fill-rule:evenodd;clip-rule:evenodd;fill:#7B58E5;}
	.st2{fill:#7B58E5;}
	.st3{fill:#72777C;}
	.st4{fill:#787878;}
	.st5{fill:#D9D9D9;}
	.st6{fill:#6C4DEA;}
	.st7{fill:#394150;}
</style>
<path class="st0" d="M51.9,79.5c-22,0-39.9-17.8-39.9-39.7S29.9,0,51.9,0s39.9,17.8,39.9,39.7S74,79.5,51.9,79.5z M51.9,2.6
	c-20.6,0-37.4,16.7-37.4,37.2S31.3,77,51.9,77s37.4-16.7,37.4-37.2S72.5,2.5,51.9,2.6L51.9,2.6z"/>
<path class="st1" d="M53.2,68.4c-0.4,0-0.8,0-1.3,0c-7.4,0-14.4-2.8-19.8-7.9c-5.3-5-8.5-11.9-9-19.2c-0.4-7.3,2-14.5,6.8-20.1
	s11.5-9.2,18.8-10s14.7,1.2,20.6,5.6s9.8,10.9,11.1,18.1c1.2,7.2-0.4,14.6-4.5,20.7S65.5,66,58.3,67.6v2.6
	c7.9-1.6,14.9-6.2,19.4-12.8c4.6-6.6,6.5-14.7,5.2-22.6c-1.2-7.9-5.5-15.1-11.9-20s-14.3-7-22.3-6.2S33.3,13.3,28,19.4
	c-5.2,6.1-7.9,14-7.5,22s3.9,15.6,9.8,21.1c5.8,5.5,13.6,8.6,21.7,8.6c0.4,0,0.9,0,1.3,0L53.2,68.4L53.2,68.4z"/>
<path class="st2" d="M53.2,51.7h-2.6V71h2.6V51.7z"/>
<path class="st3" d="M52.8,24H51v8.8h1.8V24z"/>
<path class="st3" d="M51.9,25.4c-0.7,0-1.3-0.2-1.9-0.5s-1-0.8-1.3-1.4s-0.4-1.2-0.4-1.9c0.1-0.6,0.3-1.3,0.7-1.8
	c0.6-0.8,1.4-1.3,2.3-1.4c0.9-0.1,1.9,0.1,2.6,0.6c0.8,0.6,1.3,1.4,1.4,2.3c0.1,0.9-0.1,1.9-0.6,2.6l0,0c-0.3,0.4-0.6,0.7-1,0.9
	c-0.4,0.2-0.8,0.4-1.3,0.5C52.3,25.4,52.1,25.4,51.9,25.4L51.9,25.4z M51.9,20.1c-0.3,0-0.5,0.1-0.8,0.2c-0.2,0.1-0.5,0.3-0.6,0.5
	c-0.2,0.2-0.3,0.4-0.4,0.7c-0.1,0.3-0.1,0.5,0,0.8c0.1,0.4,0.2,0.7,0.5,1s0.6,0.5,0.9,0.5c0.4,0.1,0.7,0.1,1.1-0.1
	c0.3-0.1,0.6-0.3,0.9-0.6l0,0c0.2-0.3,0.3-0.6,0.3-0.9s0-0.7-0.2-1s-0.4-0.6-0.7-0.7C52.6,20.2,52.3,20.1,51.9,20.1L51.9,20.1z"/>
<path class="st3" d="M57.4,29.7l-4.1,4.1l1.3,1.3l4.1-4.1L57.4,29.7z"/>
<path class="st3" d="M52.8,38.7H51v8.8h1.8V38.7z"/>
<path class="st3" d="M51.9,39.2c-0.8,0-1.6-0.3-2.2-0.8c-0.6-0.5-1.1-1.2-1.3-2s-0.1-1.6,0.2-2.3s0.9-1.3,1.6-1.7
	c0.7-0.4,1.5-0.5,2.3-0.3s1.5,0.6,2,1.2c0.5,0.6,0.8,1.4,0.8,2.2s-0.2,1.6-0.7,2.2c-0.3,0.5-0.8,0.8-1.3,1.1
	C53,39.1,52.5,39.2,51.9,39.2L51.9,39.2z M51.9,33.8c-0.4,0-0.9,0.2-1.2,0.4c-0.3,0.3-0.6,0.7-0.6,1.1s0,0.9,0.2,1.2
	c0.2,0.4,0.6,0.7,1,0.8s0.9,0.1,1.3,0c0.4-0.2,0.7-0.5,0.9-0.9s0.3-0.8,0.2-1.3c-0.1-0.4-0.4-0.8-0.7-1.1
	C52.7,33.9,52.3,33.8,51.9,33.8L51.9,33.8z"/>
<path class="st2" d="M59.6,32.5c-0.8,0-1.6-0.3-2.2-0.8c-0.6-0.5-1.1-1.2-1.2-2c-0.2-0.8-0.1-1.6,0.2-2.3c0.3-0.7,0.9-1.3,1.6-1.7
	c0.7-0.4,1.5-0.5,2.3-0.3s1.5,0.6,2,1.2s0.8,1.4,0.8,2.2c0,0.8-0.2,1.6-0.7,2.2c-0.3,0.4-0.6,0.7-1,0.9s-0.8,0.4-1.3,0.5
	C59.9,32.5,59.8,32.5,59.6,32.5L59.6,32.5z M59.6,27.1c-0.3,0-0.5,0.1-0.7,0.2s-0.4,0.3-0.6,0.4c-0.2,0.2-0.3,0.4-0.4,0.6
	c-0.1,0.2-0.1,0.5-0.1,0.7c0,0.3,0.1,0.5,0.2,0.7c0.1,0.2,0.3,0.4,0.5,0.6s0.4,0.3,0.7,0.3c0.2,0.1,0.5,0.1,0.8,0
	c0.2,0,0.5-0.1,0.7-0.2s0.4-0.3,0.5-0.5l0,0c0.2-0.3,0.3-0.6,0.3-0.9s0-0.7-0.2-1s-0.4-0.6-0.7-0.7C60.2,27.2,59.9,27.2,59.6,27.1
	L59.6,27.1z"/>
<path class="st3" d="M46.5,29.7L45.2,31l4.1,4.1l1.3-1.3L46.5,29.7z"/>
<path class="st3" d="M44.3,32.5c-0.2,0-0.4,0-0.6,0c-0.5-0.1-0.9-0.2-1.3-0.5c-0.4-0.2-0.7-0.6-1-0.9l0,0c-0.5-0.6-0.7-1.4-0.7-2.2
	c0-0.8,0.3-1.6,0.8-2.2s1.2-1,2-1.2s1.6,0,2.3,0.3c0.7,0.4,1.3,0.9,1.6,1.7c0.3,0.7,0.4,1.5,0.2,2.3s-0.6,1.5-1.2,2
	C45.9,32.2,45.1,32.5,44.3,32.5L44.3,32.5z M44.3,27.1c-0.3,0-0.7,0.1-1,0.3c-0.3,0.2-0.5,0.4-0.7,0.7c-0.2,0.3-0.2,0.6-0.2,1
	c0,0.3,0.1,0.7,0.3,0.9l0,0c0.3,0.4,0.7,0.7,1.2,0.7c0.5,0.1,1,0,1.4-0.3s0.7-0.7,0.7-1.2c0.1-0.5,0-1-0.3-1.4
	c-0.2-0.2-0.4-0.4-0.7-0.6C44.9,27.2,44.6,27.1,44.3,27.1L44.3,27.1z"/>
<path class="st4" d="M57.3,43.6l-4.1,4.1l1.3,1.3l4.1-4.1L57.3,43.6z"/>
<path class="st3" d="M61.6,43.6l-1.3,1.3l4.1,4.1l1.3-1.3L61.6,43.6z"/>
<path class="st2" d="M67,53.1c-0.8,0-1.7-0.3-2.3-0.8c-0.6-0.5-1.1-1.3-1.2-2.1c-0.1-0.8,0-1.7,0.5-2.4c0.4-0.7,1.1-1.3,1.9-1.5
	s1.7-0.2,2.5,0.1s1.4,0.9,1.8,1.7c0.4,0.7,0.5,1.6,0.3,2.4s-0.7,1.5-1.4,2C68.5,52.9,67.7,53.1,67,53.1z M67,47.7
	c-0.3,0-0.7,0.1-1,0.3s-0.5,0.4-0.7,0.7s-0.2,0.6-0.2,1c0,0.3,0.1,0.7,0.3,0.9l0,0c0.2,0.3,0.4,0.5,0.7,0.6c0.3,0.1,0.6,0.2,0.9,0.2
	s0.6-0.1,0.9-0.3s0.5-0.4,0.6-0.7s0.2-0.6,0.2-0.9c0-0.3-0.1-0.6-0.3-0.9c-0.2-0.3-0.4-0.5-0.7-0.6C67.6,47.8,67.3,47.7,67,47.7
	L67,47.7z"/>
<path class="st3" d="M64.8,36.8l-4.1,4.1l1.3,1.3l4.1-4.1L64.8,36.8z"/>
<path class="st3" d="M59.4,46.3c-0.8,0-1.6-0.3-2.2-0.8c-0.6-0.5-1.1-1.2-1.2-2c-0.2-0.8-0.1-1.6,0.2-2.3s0.9-1.3,1.6-1.7
	c0.7-0.4,1.5-0.5,2.3-0.3s1.5,0.6,2,1.2c0.5,0.6,0.8,1.4,0.8,2.2s-0.2,1.6-0.7,2.2c-0.3,0.4-0.6,0.7-1,0.9s-0.8,0.4-1.3,0.5
	C59.8,46.3,59.6,46.3,59.4,46.3L59.4,46.3z M59.4,41c-0.3,0-0.6,0.1-0.9,0.2c-0.3,0.2-0.5,0.4-0.7,0.6s-0.3,0.6-0.3,0.9
	c0,0.3,0.1,0.6,0.2,0.9c0.1,0.3,0.4,0.5,0.6,0.7c0.3,0.2,0.6,0.3,0.9,0.3c0.3,0,0.6,0,0.9-0.2c0.3-0.1,0.5-0.3,0.7-0.6l0,0
	c0.2-0.3,0.3-0.6,0.3-0.9s0-0.7-0.2-1s-0.4-0.6-0.7-0.7C60.1,41.1,59.8,41,59.4,41L59.4,41z"/>
<path class="st3" d="M67,39.6c-0.8,0-1.6-0.3-2.2-0.8s-1.1-1.2-1.3-2s-0.1-1.6,0.2-2.3c0.3-0.7,0.9-1.3,1.6-1.7s1.5-0.5,2.3-0.3
	s1.5,0.6,2,1.2c0.5,0.6,0.8,1.4,0.8,2.2s-0.2,1.6-0.7,2.2c-0.3,0.5-0.8,0.8-1.3,1.1C68.1,39.4,67.6,39.6,67,39.6z M67,34.2
	c-0.4,0-0.9,0.2-1.2,0.4c-0.3,0.3-0.6,0.7-0.6,1.1c-0.1,0.4,0,0.9,0.2,1.2c0.2,0.4,0.6,0.7,1,0.8s0.9,0.1,1.3-0.1
	c0.4-0.2,0.7-0.5,0.9-0.9c0.2-0.4,0.3-0.8,0.1-1.3c-0.1-0.4-0.4-0.8-0.7-1.1C67.8,34.3,67.4,34.2,67,34.2z"/>
<path class="st4" d="M46.6,43.6l-1.3,1.3l4.1,4.1l1.3-1.3L46.6,43.6z"/>
<path class="st4" d="M42.2,43.6l-4.1,4.1l1.3,1.3l4.1-4.1L42.2,43.6z"/>
<path class="st4" d="M36.9,53.1c-0.7,0-1.3-0.2-1.9-0.5c-0.6-0.3-1-0.8-1.3-1.4c-0.3-0.6-0.4-1.2-0.4-1.9c0.1-0.7,0.3-1.3,0.7-1.8
	c0.3-0.4,0.6-0.7,1-1s0.8-0.4,1.3-0.5s0.9-0.1,1.4,0s0.9,0.3,1.3,0.6c0.4,0.3,0.7,0.6,1,1c0.2,0.4,0.4,0.8,0.5,1.3s0,0.9-0.1,1.4
	s-0.3,0.9-0.6,1.3l0,0c-0.3,0.4-0.6,0.7-1,0.9S38,52.9,37.5,53C37.2,53.1,37.1,53.1,36.9,53.1z M36.9,47.7c-0.3,0-0.5,0.1-0.8,0.2
	c-0.2,0.1-0.5,0.3-0.6,0.5c-0.2,0.2-0.3,0.4-0.4,0.7c-0.1,0.3-0.1,0.5,0,0.8c0.1,0.4,0.2,0.7,0.5,1c0.2,0.3,0.6,0.5,0.9,0.5
	c0.4,0.1,0.7,0.1,1.1-0.1c0.3-0.1,0.6-0.3,0.9-0.6l0,0c0.2-0.3,0.3-0.6,0.3-0.9c0-0.3,0-0.7-0.2-1s-0.4-0.6-0.7-0.7
	C37.5,47.8,37.2,47.7,36.9,47.7L36.9,47.7z"/>
<path class="st4" d="M39,36.8l-1.3,1.3l4.1,4.1l1.3-1.3L39,36.8z"/>
<path class="st2" d="M44.4,46.3c-0.2,0-0.4,0-0.6,0c-0.9-0.1-1.7-0.6-2.3-1.4c-0.6-0.7-0.8-1.6-0.7-2.5s0.6-1.7,1.3-2.3
	s1.6-0.9,2.5-0.8c0.9,0.1,1.8,0.5,2.4,1.2s0.9,1.6,0.9,2.5s-0.4,1.8-1.1,2.4C46.2,46,45.3,46.3,44.4,46.3L44.4,46.3z M44.4,41
	c-0.3,0-0.7,0.1-1,0.3s-0.5,0.4-0.7,0.7s-0.2,0.6-0.2,1c0,0.3,0.1,0.7,0.3,0.9l0,0c0.3,0.4,0.7,0.6,1.2,0.7s1,0,1.4-0.3
	s0.7-0.7,0.7-1.2c0.1-0.5,0-1-0.3-1.4c-0.2-0.2-0.4-0.4-0.7-0.6C45,41,44.7,41,44.4,41L44.4,41z"/>
<path class="st3" d="M36.9,39.6c-0.6,0-1.1-0.1-1.6-0.4c-0.5-0.3-0.9-0.6-1.3-1.1l0,0c-0.5-0.6-0.7-1.4-0.7-2.2s0.3-1.6,0.8-2.2
	c0.5-0.6,1.2-1,2-1.2s1.6,0,2.3,0.3c0.7,0.4,1.3,0.9,1.6,1.7c0.3,0.7,0.4,1.5,0.2,2.3s-0.6,1.5-1.3,2C38.5,39.3,37.7,39.6,36.9,39.6
	L36.9,39.6z M35.4,37.1c0.2,0.3,0.5,0.5,0.9,0.6c0.3,0.1,0.7,0.1,1.1,0.1c0.4-0.1,0.7-0.3,0.9-0.5c0.2-0.3,0.4-0.6,0.5-1
	s0-0.7-0.1-1.1c-0.2-0.3-0.4-0.6-0.7-0.8s-0.7-0.3-1-0.3c-0.4,0-0.7,0.1-1,0.3c-0.4,0.3-0.7,0.7-0.7,1.2
	C35,36.2,35.1,36.7,35.4,37.1L35.4,37.1z"/>
<path class="st3" d="M51.9,52.9c-0.8,0-1.6-0.3-2.2-0.8c-0.6-0.5-1.1-1.2-1.3-2s-0.1-1.6,0.2-2.3s0.9-1.3,1.6-1.7s1.5-0.5,2.3-0.3
	s1.5,0.6,2,1.2c0.5,0.6,0.8,1.4,0.8,2.2s-0.2,1.6-0.7,2.2l0,0c-0.3,0.4-0.6,0.7-1,0.9s-0.8,0.4-1.3,0.5
	C52.3,52.9,52.1,52.9,51.9,52.9L51.9,52.9z M51.9,47.6c-0.1,0-0.2,0-0.3,0c-0.3,0-0.6,0.2-0.8,0.4s-0.4,0.4-0.6,0.7
	C50.1,49,50,49.3,50,49.6c0,0.3,0.1,0.6,0.3,0.8c0.2,0.3,0.4,0.5,0.6,0.6c0.3,0.2,0.6,0.2,0.9,0.3c0.3,0,0.6,0,0.9-0.2
	c0.3-0.1,0.5-0.3,0.7-0.6l0,0c0.2-0.3,0.3-0.6,0.3-0.9c0-0.3,0-0.7-0.2-1s-0.4-0.6-0.7-0.7C52.6,47.7,52.3,47.6,51.9,47.6L51.9,47.6
	z"/>
<rect x="119" class="st5" width="3" height="100"/>
<path class="st6" d="M4,100c-0.7,0-1.4-0.1-2-0.4c-0.6-0.2-1.1-0.6-1.4-1.1C0.2,98,0,97.4,0,96.8h2.7c0,0.3,0.2,0.7,0.4,0.9
	C3.3,97.9,3.7,98,4,98c0.3,0,0.6-0.1,0.9-0.3c0.1-0.1,0.2-0.2,0.2-0.3c0.1-0.1,0.1-0.3,0.1-0.4s0-0.2-0.1-0.3c0-0.1-0.1-0.2-0.2-0.3
	c-0.2-0.2-0.4-0.3-0.6-0.4c-0.3-0.1-0.7-0.3-1.1-0.4c-0.6-0.2-1.1-0.4-1.6-0.6c-0.4-0.2-0.8-0.5-1.1-0.9C0.2,93.5,0,93,0,92.4
	c0-1,0.3-1.7,1-2.3c0.7-0.5,1.6-0.8,2.7-0.8s2.1,0.3,2.8,0.8c0.7,0.6,1.1,1.3,1.1,2.3H4.9c0-0.1,0-0.3-0.1-0.4s-0.2-0.3-0.3-0.4
	c-0.2-0.2-0.6-0.3-0.9-0.3s-0.5,0.1-0.7,0.3c-0.1,0.1-0.2,0.2-0.2,0.3c0,0.1-0.1,0.3-0.1,0.4c0,0.2,0,0.3,0.1,0.5
	C2.9,92.9,3,93,3.1,93.1c0.5,0.3,1,0.5,1.5,0.6c0.6,0.2,1.1,0.4,1.6,0.6c0.4,0.2,0.8,0.5,1.1,0.9c0.3,0.4,0.5,1,0.5,1.5
	c0,0.6-0.2,1.1-0.5,1.6c-0.3,0.6-0.7,1-1.3,1.2C5.4,99.8,4.7,100,4,100L4,100z M14.4,99.9l-2.5-3.5v3.5H9.3v-11h2.5V95l2.5-3.4h3.1
	L14,95.7l3.4,4.1h-3V99.9z M19.7,90.7c-0.4,0-0.8-0.1-1.1-0.4c-0.1-0.1-0.2-0.3-0.3-0.4c-0.1-0.2-0.1-0.3-0.1-0.5s0-0.4,0.1-0.5
	c0.1-0.2,0.2-0.3,0.3-0.4c0.3-0.3,0.7-0.4,1.1-0.4c0.2,0,0.4,0,0.6,0.1s0.3,0.2,0.5,0.3c0.1,0.1,0.2,0.3,0.3,0.4
	c0.1,0.2,0.1,0.4,0.1,0.5c0,0.2,0,0.4-0.1,0.5c-0.1,0.2-0.2,0.3-0.3,0.4C20.5,90.6,20.1,90.7,19.7,90.7L19.7,90.7z M20.9,91.6v8.3
	h-2.5v-8.3H20.9z M25.3,88.9v11h-2.5v-11H25.3z M29.6,88.9v11h-2.5v-11H29.6z M34.8,100c-0.7,0-1.3-0.1-1.9-0.4
	c-0.5-0.2-1-0.6-1.3-1s-0.5-0.9-0.5-1.5h2.5c0,0.1,0.1,0.3,0.1,0.4c0.1,0.1,0.2,0.2,0.3,0.3c0.3,0.2,0.6,0.3,0.9,0.3
	c0.3,0,0.5,0,0.7-0.2c0.1-0.1,0.1-0.1,0.2-0.2c0-0.1,0.1-0.2,0.1-0.3c0-0.1,0-0.2-0.1-0.3c-0.1-0.1-0.2-0.2-0.3-0.2
	c-0.4-0.2-0.8-0.3-1.2-0.4c-0.5-0.1-1-0.3-1.5-0.4c-0.4-0.2-0.7-0.4-1-0.7c-0.3-0.4-0.5-0.9-0.4-1.3c0-0.5,0.1-0.9,0.4-1.3
	s0.7-0.7,1.1-0.9c0.6-0.2,1.2-0.4,1.8-0.3c1,0,1.8,0.3,2.4,0.8c0.3,0.3,0.5,0.6,0.7,0.9c0.2,0.4,0.3,0.7,0.3,1.1h-2.3
	c0-0.1-0.1-0.3-0.1-0.4c-0.1-0.1-0.2-0.2-0.3-0.3c-0.2-0.2-0.5-0.3-0.8-0.3c-0.2,0-0.5,0-0.7,0.2c-0.1,0-0.1,0.1-0.2,0.2
	c0,0.1-0.1,0.2-0.1,0.3c0,0.1,0,0.2,0.1,0.3c0.1,0.1,0.2,0.2,0.3,0.2c0.4,0.2,0.8,0.3,1.2,0.4c0.5,0.1,1,0.3,1.5,0.5
	c0.4,0.2,0.7,0.4,1,0.7c0.3,0.4,0.5,0.9,0.5,1.4s-0.1,0.9-0.4,1.3c-0.3,0.4-0.7,0.7-1.2,0.9C36,99.9,35.4,100,34.8,100L34.8,100z"/>
<path class="st3" d="M52.1,99.9h-1.7l-5-7.7v7.7h-1.7V89.6h1.7l5,7.7v-7.7h1.7V99.9z M61.8,95.6c0,0.3,0,0.6-0.1,0.8h-6.2
	c0,0.6,0.3,1.2,0.7,1.6s1,0.6,1.6,0.6c0.9,0,1.5-0.4,1.9-1.1h1.8c-0.2,0.7-0.7,1.4-1.3,1.9s-1.4,0.7-2.4,0.7c-0.7,0-1.5-0.2-2.1-0.5
	c-0.6-0.4-1.1-0.9-1.4-1.5c-0.3-0.7-0.5-1.4-0.5-2.2c0-0.8,0.2-1.5,0.5-2.2c0.3-0.6,0.8-1.1,1.4-1.5c0.6-0.4,1.4-0.5,2.1-0.5
	c0.7,0,1.4,0.2,2,0.5s1.1,0.8,1.4,1.4C61.6,94.1,61.8,94.9,61.8,95.6z M60,95.1c0-0.3-0.1-0.6-0.2-0.8c-0.1-0.3-0.3-0.5-0.5-0.7
	c-0.4-0.4-1-0.6-1.6-0.6c-0.5,0-1.1,0.2-1.5,0.6s-0.7,0.9-0.7,1.5H60z M65.4,93.1v4.5c0,0.2,0.1,0.5,0.2,0.7
	c0.1,0.1,0.4,0.2,0.7,0.2h1v1.4H66c-0.8,0-1.3-0.2-1.7-0.5c-0.4-0.4-0.6-0.9-0.6-1.7v-4.5h-1v-1.4h1v-2h1.7v2h2v1.4L65.4,93.1z
	 M79.8,91.7l-2.5,8.2h-1.8l-1.6-6l-1.6,6h-1.8L68,91.7h1.7l1.7,6.6l1.7-6.6h1.8l1.6,6.5l1.7-6.5H79.8z M84.5,100
	c-0.7,0-1.4-0.2-2.1-0.5c-0.6-0.4-1.1-0.9-1.4-1.5c-0.4-0.7-0.5-1.4-0.5-2.2c0-0.8,0.2-1.5,0.5-2.2c0.3-0.6,0.9-1.1,1.5-1.5
	c0.6-0.3,1.4-0.5,2.1-0.5s1.5,0.2,2.1,0.5s1.1,0.9,1.5,1.5c0.4,0.7,0.6,1.4,0.5,2.2c0,0.8-0.2,1.5-0.6,2.2c-0.4,0.6-0.9,1.1-1.5,1.5
	C86,99.8,85.3,100,84.5,100z M84.5,98.5c0.4,0,0.8-0.1,1.2-0.3c0.4-0.2,0.7-0.5,0.9-0.9c0.2-0.5,0.4-1,0.4-1.5s-0.1-1-0.3-1.5
	c-0.2-0.4-0.5-0.7-0.9-0.9C85.4,93.1,85,93,84.6,93s-0.8,0.1-1.2,0.3c-0.4,0.2-0.7,0.5-0.9,0.9c-0.2,0.5-0.3,1-0.3,1.5
	c0,0.9,0.2,1.6,0.7,2c0.2,0.2,0.5,0.4,0.8,0.5C83.9,98.5,84.2,98.5,84.5,98.5L84.5,98.5z M92.1,92.9c0.2-0.4,0.6-0.7,1-1
	c0.4-0.2,0.9-0.4,1.4-0.4v1.7h-0.4c-0.7,0-1.2,0.2-1.5,0.5s-0.5,0.9-0.5,1.7v4.3h-1.7v-8.2h1.7V92.9z M99.3,95.8l3.7,4.1h-2.3
	l-3-3.5v3.5H96v-11h1.7v6.4l2.9-3.6h2.3L99.3,95.8z"/>
<path class="st7" d="M155,26c0,1.2-0.3,2.3-0.9,3.4c-0.6,1-1.4,1.9-2.7,2.5c-1.2,0.6-2.7,1-4.5,1h-3.7v8.5h-4.5V19.1h8.2
	c1.7,0,3.2,0.3,4.4,0.9c1.2,0.6,2.1,1.4,2.7,2.5C154.7,23.5,155,24.7,155,26z M146.7,29.2c1.2,0,2.2-0.3,2.8-0.8
	c0.6-0.6,0.9-1.4,0.9-2.4c0-2.2-1.2-3.3-3.6-3.3h-3.5v6.5C143.3,29.2,146.7,29.2,146.7,29.2z M166,41.7c-1.7,0-3.2-0.4-4.6-1.1
	c-1.4-0.8-2.4-1.8-3.2-3.2s-1.2-3-1.2-4.8s0.4-3.4,1.2-4.8s1.9-2.5,3.3-3.2c1.4-0.8,2.9-1.2,4.6-1.2c1.7,0,3.3,0.4,4.6,1.2
	c1.4,0.7,2.5,1.8,3.3,3.2s1.2,3,1.2,4.8s-0.4,3.4-1.2,4.8c-0.8,1.4-1.9,2.5-3.3,3.2S167.7,41.7,166,41.7z M166,37.8
	c0.8,0,1.6-0.2,2.3-0.6c0.7-0.4,1.3-1,1.7-1.8s0.6-1.7,0.6-2.9c0-1.7-0.4-3-1.3-3.9c-0.9-0.9-2-1.4-3.2-1.4c-1.3,0-2.4,0.5-3.2,1.4
	c-0.9,0.9-1.3,2.2-1.3,3.9s0.4,3,1.2,3.9C163.7,37.4,164.7,37.8,166,37.8z M183,26.5c0.6-0.9,1.3-1.7,2.2-2.2s2-0.8,3.2-0.8v4.7
	h-1.2c-1.4,0-2.5,0.3-3.2,1s-1.1,1.8-1.1,3.5v8.7h-4.5V23.7h4.5v2.8H183z M196.7,27.4V36c0,0.6,0.1,1,0.4,1.3
	c0.3,0.3,0.8,0.4,1.5,0.4h2.1v3.7h-2.8c-3.8,0-5.7-1.8-5.7-5.5v-8.5h-2.1v-3.7h2.1v-4.4h4.5v4.4h4v3.7H196.7z M202.7,32.5
	c0-1.8,0.4-3.4,1.1-4.8c0.7-1.4,1.7-2.5,2.9-3.2s2.6-1.1,4.1-1.1c1.3,0,2.5,0.3,3.5,0.8s1.8,1.2,2.4,2v-2.5h4.5v17.7h-4.5v-2.6
	c-0.6,0.8-1.4,1.5-2.4,2.1c-1,0.5-2.2,0.8-3.5,0.8c-1.5,0-2.9-0.4-4.1-1.2c-1.2-0.8-2.2-1.8-2.9-3.2
	C203.1,35.9,202.7,34.3,202.7,32.5z M216.7,32.6c0-1.1-0.2-2-0.6-2.8c-0.4-0.8-1-1.4-1.7-1.8s-1.5-0.6-2.3-0.6s-1.6,0.2-2.3,0.6
	c-0.7,0.4-1.3,1-1.7,1.8s-0.6,1.7-0.6,2.8s0.2,2,0.6,2.8c0.4,0.8,1,1.4,1.7,1.8c0.7,0.4,1.5,0.6,2.3,0.6s1.6-0.2,2.3-0.6
	c0.7-0.4,1.3-1,1.7-1.8C216.5,34.6,216.7,33.7,216.7,32.6z M230,17.8v23.6h-4.5V17.8H230z M163,51.1v22.3h-4.5V58.9l-6,14.5h-3.4
	l-6-14.5v14.5h-4.5V51.1h5.1l7.1,16.6l7.1-16.6C157.9,51.1,163,51.1,163,51.1z M166.3,64.5c0-1.8,0.4-3.4,1.1-4.8
	c0.7-1.4,1.7-2.5,2.9-3.2s2.6-1.1,4.1-1.1c1.3,0,2.5,0.3,3.5,0.8s1.8,1.2,2.4,2v-2.5h4.5v17.7h-4.5v-2.6c-0.6,0.8-1.4,1.5-2.4,2.1
	c-1,0.5-2.2,0.8-3.5,0.8c-1.5,0-2.9-0.4-4.1-1.2c-1.2-0.8-2.2-1.8-2.9-3.2C166.7,67.9,166.3,66.3,166.3,64.5z M180.3,64.6
	c0-1.1-0.2-2-0.6-2.8c-0.4-0.8-1-1.4-1.7-1.8c-0.7-0.4-1.5-0.6-2.3-0.6s-1.6,0.2-2.3,0.6c-0.7,0.4-1.3,1-1.7,1.8s-0.6,1.7-0.6,2.8
	c0,1.1,0.2,2,0.6,2.8c0.4,0.8,1,1.4,1.7,1.8s1.5,0.6,2.3,0.6s1.6-0.2,2.3-0.6s1.3-1,1.7-1.8C180,66.6,180.3,65.6,180.3,64.6z
	 M199,55.4c2.1,0,3.8,0.7,5.1,2s2,3.2,2,5.6v10.4h-4.5v-9.8c0-1.4-0.4-2.5-1.1-3.2c-0.7-0.8-1.7-1.2-2.9-1.2s-2.2,0.4-2.9,1.2
	c-0.7,0.7-1.1,1.8-1.1,3.2v9.8h-4.5V55.7h4.5v2.2c0.6-0.8,1.4-1.4,2.3-1.8C196.8,55.7,197.8,55.4,199,55.4z M209.1,64.5
	c0-1.8,0.4-3.4,1.1-4.8c0.7-1.4,1.7-2.5,2.9-3.2s2.6-1.1,4.1-1.1c1.3,0,2.5,0.3,3.5,0.8s1.8,1.2,2.4,2v-2.5h4.5v17.7h-4.5v-2.6
	c-0.6,0.8-1.4,1.5-2.4,2.1c-1,0.5-2.2,0.8-3.5,0.8c-1.5,0-2.9-0.4-4.1-1.2c-1.2-0.8-2.2-1.8-2.9-3.2
	C209.5,67.9,209.1,66.3,209.1,64.5z M223.1,64.6c0-1.1-0.2-2-0.6-2.8c-0.4-0.8-1-1.4-1.7-1.8c-0.7-0.4-1.5-0.6-2.3-0.6
	s-1.6,0.2-2.3,0.6c-0.7,0.4-1.3,1-1.7,1.8s-0.6,1.7-0.6,2.8c0,1.1,0.2,2,0.6,2.8c0.4,0.8,1,1.4,1.7,1.8s1.5,0.6,2.3,0.6
	s1.6-0.2,2.3-0.6s1.3-1,1.7-1.8S223.1,65.6,223.1,64.6z M238.9,55.4c1.3,0,2.5,0.3,3.5,0.8s1.8,1.2,2.4,2v-2.5h4.5v17.8
	c0,1.6-0.3,3.1-1,4.4s-1.7,2.3-3,3.1c-1.3,0.8-2.9,1.2-4.8,1.2c-2.5,0-4.6-0.6-6.2-1.8c-1.6-1.2-2.5-2.8-2.7-4.8h4.4
	c0.2,0.8,0.7,1.4,1.5,1.9s1.7,0.7,2.8,0.7c1.3,0,2.4-0.4,3.2-1.2c0.8-0.8,1.2-1.9,1.2-3.5v-2.8c-0.6,0.8-1.4,1.5-2.4,2.1
	s-2.2,0.8-3.5,0.8c-1.5,0-2.9-0.4-4.1-1.2c-1.2-0.8-2.2-1.8-2.9-3.2c-0.7-1.4-1.1-3-1.1-4.8s0.4-3.4,1.1-4.8
	c0.7-1.4,1.7-2.5,2.9-3.2C236,55.8,237.4,55.4,238.9,55.4z M244.7,64.6c0-1.1-0.2-2-0.6-2.8c-0.4-0.8-1-1.4-1.7-1.8
	c-0.7-0.4-1.5-0.6-2.3-0.6s-1.6,0.2-2.3,0.6c-0.7,0.4-1.3,1-1.7,1.8s-0.6,1.7-0.6,2.8c0,1.1,0.2,2,0.6,2.8c0.4,0.8,1,1.4,1.7,1.8
	s1.5,0.6,2.3,0.6s1.6-0.2,2.3-0.6s1.3-1,1.7-1.8C244.5,66.6,244.7,65.6,244.7,64.6z M270.1,64.2c0,0.6,0,1.2-0.1,1.7h-13
	c0.1,1.3,0.6,2.3,1.3,3c0.8,0.7,1.8,1.1,2.9,1.1c1.7,0,2.8-0.7,3.5-2.1h4.8c-0.5,1.7-1.5,3.1-2.9,4.2s-3.2,1.6-5.3,1.6
	c-1.7,0-3.2-0.4-4.6-1.1c-1.3-0.8-2.4-1.8-3.2-3.2c-0.7-1.4-1.1-3-1.1-4.8s0.4-3.4,1.1-4.8c0.7-1.4,1.8-2.5,3.1-3.2s2.9-1.1,4.6-1.1
	s3.2,0.4,4.5,1.1c1.3,0.7,2.4,1.8,3.1,3.1C269.7,60.9,270.1,62.4,270.1,64.2z M265.5,62.9c0-1.2-0.4-2.1-1.2-2.8
	c-0.8-0.7-1.8-1.1-3-1.1c-1.1,0-2,0.3-2.8,1c-0.7,0.7-1.2,1.6-1.4,2.8L265.5,62.9L265.5,62.9z M277.8,58.4c0.6-0.9,1.3-1.7,2.2-2.2
	c0.9-0.5,2-0.8,3.2-0.8v4.7H282c-1.4,0-2.5,0.3-3.2,1s-1.1,1.8-1.1,3.5v8.8h-4.5V55.7h4.5v2.7H277.8z"/>
</svg>
